G04 DipTrace 3.3.1.3*
G04 BottomSilk.gbr*
%MOMM*%
G04 #@! TF.FileFunction,Legend,Bot*
G04 #@! TF.Part,Single*
%ADD10C,0.25*%
%ADD19C,0.127*%
%ADD20C,0.6096*%
%ADD50C,0.19608*%
%ADD51C,0.22222*%
%ADD52C,0.15686*%
%ADD53C,0.1016*%
%FSLAX35Y35*%
G04*
G71*
G90*
G75*
G01*
G04 BotSilk*
%LPD*%
X1596633Y483101D2*
D19*
X2326713D1*
X3996633D2*
Y2083019D1*
X2326713D2*
X1596633D1*
Y483101D1*
X2156793Y1763113D2*
D20*
X1666713D1*
Y1673097D1*
X2036793D1*
Y1572993D1*
X1676793D1*
Y1453101D1*
X2036793D1*
Y1333015D1*
X1676793D1*
Y1223017D1*
X2026713D1*
Y1113019D1*
X1676793D1*
Y712991D1*
X2166633Y1763113D2*
X2226633D1*
Y1113019D1*
X2894797Y1357287D2*
D10*
X3894797D1*
Y1057287D1*
X2894797D1*
Y1357287D1*
Y1057287D2*
X3894797D1*
Y757287D1*
X2894797D1*
Y1057287D1*
X2094797Y1357287D2*
X2894797D1*
Y1057287D1*
X2094797D1*
Y1357287D1*
Y1057287D2*
X2894797D1*
Y757287D1*
X2094797D1*
Y1057287D1*
X2095057Y1654270D2*
X3895057D1*
Y1354270D1*
X2095057D1*
Y1654270D1*
X3783686Y1264451D2*
D51*
X3744827Y1162364D1*
X3705969Y1264451D1*
X3661524Y1201222D2*
X3603236D1*
Y1210993D1*
X3608066Y1220764D1*
X3612895Y1225593D1*
X3622666Y1230422D1*
X3637266D1*
X3646924Y1225593D1*
X3656695Y1215822D1*
X3661524Y1201222D1*
Y1191564D1*
X3656695Y1176964D1*
X3646924Y1167305D1*
X3637266Y1162364D1*
X3622666D1*
X3612895Y1167305D1*
X3603236Y1176964D1*
X3558792Y1230422D2*
Y1162364D1*
Y1201222D2*
X3553851Y1215822D1*
X3544192Y1225593D1*
X3534421Y1230422D1*
X3519821D1*
X3421918Y1215822D2*
X3426748Y1225593D1*
X3441348Y1230422D1*
X3455948D1*
X3470548Y1225593D1*
X3475377Y1215822D1*
X3470548Y1206164D1*
X3460777Y1201222D1*
X3436518Y1196393D1*
X3426748Y1191564D1*
X3421918Y1181793D1*
Y1176964D1*
X3426748Y1167305D1*
X3441348Y1162364D1*
X3455948D1*
X3470548Y1167305D1*
X3475377Y1176964D1*
X3377474Y1264451D2*
X3372645Y1259622D1*
X3367703Y1264451D1*
X3372645Y1269393D1*
X3377474Y1264451D1*
X3372645Y1230422D2*
Y1162364D1*
X3299000Y1230422D2*
X3308659Y1225593D1*
X3318429Y1215822D1*
X3323259Y1201222D1*
Y1191564D1*
X3318429Y1176964D1*
X3308659Y1167305D1*
X3299000Y1162364D1*
X3284400D1*
X3274629Y1167305D1*
X3264971Y1176964D1*
X3260029Y1191564D1*
Y1201222D1*
X3264971Y1215822D1*
X3274629Y1225593D1*
X3284400Y1230422D1*
X3299000D1*
X3215585D2*
Y1162364D1*
Y1210993D2*
X3200985Y1225593D1*
X3191214Y1230422D1*
X3176727D1*
X3166956Y1225593D1*
X3162127Y1210993D1*
Y1162364D1*
X3706437Y964451D2*
D52*
X3769554D1*
Y862364D1*
X3706437D1*
X3769554Y915822D2*
X3730695D1*
X3607006Y949851D2*
X3616664Y959622D1*
X3631264Y964451D1*
X3650694D1*
X3665294Y959622D1*
X3675064Y949851D1*
Y940193D1*
X3670123Y930422D1*
X3665294Y925593D1*
X3655635Y920764D1*
X3626435Y910993D1*
X3616664Y906164D1*
X3611835Y901222D1*
X3607006Y891564D1*
Y876964D1*
X3616664Y867305D1*
X3631264Y862364D1*
X3650694D1*
X3665294Y867305D1*
X3675064Y876964D1*
X3575633Y910993D2*
X3531833D1*
X3517346Y915822D1*
X3512404Y920764D1*
X3507575Y930422D1*
Y945022D1*
X3512404Y954681D1*
X3517346Y959622D1*
X3531833Y964451D1*
X3575633D1*
Y862364D1*
X3476202Y944910D2*
X3466432Y949851D1*
X3451832Y964339D1*
Y862364D1*
X3415517Y940081D2*
Y944910D1*
X3410688Y954681D1*
X3405859Y959510D1*
X3396088Y964339D1*
X3376659D1*
X3367001Y959510D1*
X3362171Y954681D1*
X3357230Y944910D1*
Y935251D1*
X3362171Y925481D1*
X3371830Y910993D1*
X3420459Y862364D1*
X3352401D1*
X3321028Y913351D2*
X3264874D1*
X3233502Y930422D2*
X3204302Y862364D1*
X3175214Y930422D1*
X3143841Y944910D2*
X3134071Y949851D1*
X3119471Y964339D1*
Y862364D1*
X3083156Y940081D2*
Y944910D1*
X3078327Y954681D1*
X3073498Y959510D1*
X3063727Y964339D1*
X3044298D1*
X3034640Y959510D1*
X3029810Y954681D1*
X3024869Y944910D1*
Y935251D1*
X3029810Y925481D1*
X3039469Y910993D1*
X3088098Y862364D1*
X3020040D1*
X2639236Y1264451D2*
D51*
Y1162364D1*
X2707295Y1264451D1*
Y1162364D1*
X2536504Y1230422D2*
Y1162364D1*
Y1215822D2*
X2546163Y1225593D1*
X2555934Y1230422D1*
X2570421D1*
X2580192Y1225593D1*
X2589850Y1215822D1*
X2594792Y1201222D1*
Y1191564D1*
X2589850Y1176964D1*
X2580192Y1167305D1*
X2570421Y1162364D1*
X2555934D1*
X2546163Y1167305D1*
X2536504Y1176964D1*
X2492060Y1230422D2*
Y1162364D1*
Y1210993D2*
X2477460Y1225593D1*
X2467689Y1230422D1*
X2453201D1*
X2443431Y1225593D1*
X2438601Y1210993D1*
Y1162364D1*
Y1210993D2*
X2424001Y1225593D1*
X2414231Y1230422D1*
X2399743D1*
X2389972Y1225593D1*
X2385031Y1210993D1*
Y1162364D1*
X2340586Y1201222D2*
X2282298D1*
Y1210993D1*
X2287128Y1220764D1*
X2291957Y1225593D1*
X2301728Y1230422D1*
X2316328D1*
X2325986Y1225593D1*
X2335757Y1215822D1*
X2340586Y1201222D1*
Y1191564D1*
X2335757Y1176964D1*
X2325986Y1167305D1*
X2316328Y1162364D1*
X2301728D1*
X2291957Y1167305D1*
X2282298Y1176964D1*
X2660902Y964451D2*
D52*
Y862364D1*
X2617102D1*
X2602502Y867305D1*
X2597672Y872134D1*
X2592843Y881793D1*
Y896393D1*
X2597672Y906164D1*
X2602502Y910993D1*
X2617102Y915822D1*
X2602502Y920764D1*
X2597672Y925593D1*
X2592843Y935251D1*
Y945022D1*
X2597672Y954681D1*
X2602502Y959622D1*
X2617102Y964451D1*
X2660902D1*
Y915822D2*
X2617102D1*
X2503183Y930422D2*
Y862364D1*
Y915822D2*
X2512841Y925593D1*
X2522612Y930422D1*
X2537100D1*
X2546871Y925593D1*
X2556529Y915822D1*
X2561471Y901222D1*
Y891564D1*
X2556529Y876964D1*
X2546871Y867305D1*
X2537100Y862364D1*
X2522612D1*
X2512841Y867305D1*
X2503183Y876964D1*
X2418352Y915822D2*
X2423181Y925593D1*
X2437781Y930422D1*
X2452381D1*
X2466981Y925593D1*
X2471810Y915822D1*
X2466981Y906164D1*
X2457210Y901222D1*
X2432952Y896393D1*
X2423181Y891564D1*
X2418352Y881793D1*
Y876964D1*
X2423181Y867305D1*
X2437781Y862364D1*
X2452381D1*
X2466981Y867305D1*
X2471810Y876964D1*
X2386979Y901222D2*
X2328692D1*
Y910993D1*
X2333521Y920764D1*
X2338350Y925593D1*
X2348121Y930422D1*
X2362721D1*
X2372379Y925593D1*
X2382150Y915822D1*
X2386979Y901222D1*
Y891564D1*
X2382150Y876964D1*
X2372379Y867305D1*
X2362721Y862364D1*
X2348121D1*
X2338350Y867305D1*
X2328692Y876964D1*
X3564909Y1557476D2*
D50*
X3576982Y1569689D1*
X3595232Y1575726D1*
X3619519D1*
X3637769Y1569689D1*
X3649982Y1557476D1*
Y1545403D1*
X3643805Y1533189D1*
X3637769Y1527153D1*
X3625696Y1521116D1*
X3589196Y1508903D1*
X3576982Y1502866D1*
X3570946Y1496689D1*
X3564909Y1484616D1*
Y1466366D1*
X3576982Y1454293D1*
X3595232Y1448116D1*
X3619519D1*
X3637769Y1454293D1*
X3649982Y1466366D1*
X3525693Y1533189D2*
Y1448116D1*
Y1508903D2*
X3507443Y1527153D1*
X3495230Y1533189D1*
X3477120D1*
X3464907Y1527153D1*
X3458870Y1508903D1*
Y1448116D1*
Y1508903D2*
X3440620Y1527153D1*
X3428407Y1533189D1*
X3410297D1*
X3398084Y1527153D1*
X3391907Y1508903D1*
Y1448116D1*
X3279832Y1533189D2*
Y1448116D1*
Y1514939D2*
X3291905Y1527153D1*
X3304118Y1533189D1*
X3322228D1*
X3334441Y1527153D1*
X3346514Y1514939D1*
X3352691Y1496689D1*
Y1484616D1*
X3346514Y1466366D1*
X3334441Y1454293D1*
X3322228Y1448116D1*
X3304118D1*
X3291905Y1454293D1*
X3279832Y1466366D1*
X3240616Y1533189D2*
Y1448116D1*
Y1496689D2*
X3234439Y1514939D1*
X3222366Y1527153D1*
X3210152Y1533189D1*
X3191902D1*
X3134437Y1575726D2*
Y1472403D1*
X3128400Y1454293D1*
X3116187Y1448116D1*
X3104114D1*
X3152687Y1533189D2*
X3110150D1*
X2998075Y1514939D2*
X3004111Y1527153D1*
X3022361Y1533189D1*
X3040611D1*
X3058861Y1527153D1*
X3064898Y1514939D1*
X3058861Y1502866D1*
X3046648Y1496689D1*
X3016325Y1490653D1*
X3004111Y1484616D1*
X2998075Y1472403D1*
Y1466366D1*
X3004111Y1454293D1*
X3022361Y1448116D1*
X3040611D1*
X3058861Y1454293D1*
X3064898Y1466366D1*
X2898073Y1448116D2*
Y1575585D1*
X2958859Y1490653D1*
X2867750D1*
X2828534Y1575726D2*
Y1448116D1*
X2743461Y1575726D2*
Y1448116D1*
X2828534Y1514939D2*
X2743461D1*
X2673922Y1533189D2*
X2685995Y1527153D1*
X2698209Y1514939D1*
X2704245Y1496689D1*
Y1484616D1*
X2698209Y1466366D1*
X2685995Y1454293D1*
X2673922Y1448116D1*
X2655672D1*
X2643459Y1454293D1*
X2631386Y1466366D1*
X2625209Y1484616D1*
Y1496689D1*
X2631386Y1514939D1*
X2643459Y1527153D1*
X2655672Y1533189D1*
X2673922D1*
X2585993D2*
Y1448116D1*
Y1508903D2*
X2567743Y1527153D1*
X2555529Y1533189D1*
X2537420D1*
X2525206Y1527153D1*
X2519170Y1508903D1*
Y1448116D1*
Y1508903D2*
X2500920Y1527153D1*
X2488706Y1533189D1*
X2470597D1*
X2458383Y1527153D1*
X2452206Y1508903D1*
Y1448116D1*
X2412991Y1496689D2*
X2340131D1*
Y1508903D1*
X2346168Y1521116D1*
X2352204Y1527153D1*
X2364418Y1533189D1*
X2382668D1*
X2394741Y1527153D1*
X2406954Y1514939D1*
X2412991Y1496689D1*
Y1484616D1*
X2406954Y1466366D1*
X2394741Y1454293D1*
X2382668Y1448116D1*
X2364418D1*
X2352204Y1454293D1*
X2340131Y1466366D1*
X2607705Y1566813D2*
D53*
Y1645709D1*
X2735314D1*
Y1566813D1*
X2668491Y1645709D2*
Y1597136D1*
X2625955Y1461420D2*
X2613741Y1473493D1*
X2607705Y1491743D1*
Y1516030D1*
X2613741Y1534280D1*
X2625955Y1546493D1*
X2638028D1*
X2650241Y1540316D1*
X2656278Y1534280D1*
X2662314Y1522207D1*
X2674528Y1485707D1*
X2680564Y1473493D1*
X2686741Y1467457D1*
X2698814Y1461420D1*
X2717064D1*
X2729137Y1473493D1*
X2735314Y1491743D1*
Y1516030D1*
X2729137Y1534280D1*
X2717064Y1546493D1*
X2674528Y1441100D2*
Y1386350D1*
X2668491Y1368241D1*
X2662314Y1362064D1*
X2650241Y1356027D1*
X2631991D1*
X2619918Y1362064D1*
X2613741Y1368241D1*
X2607705Y1386350D1*
Y1441100D1*
X2735314D1*
X2671580Y1231156D2*
Y1160964D1*
X2632132Y1036093D2*
X2625955Y1023880D1*
X2607845Y1005630D1*
X2735314D1*
X2638168Y979133D2*
X2632132D1*
X2619918Y973097D1*
X2613882Y967060D1*
X2607845Y954847D1*
Y930560D1*
X2613881Y918487D1*
X2619918Y912450D1*
X2632131Y906274D1*
X2644205D1*
X2656418Y912450D1*
X2674528Y924524D1*
X2735314Y985310D1*
Y900237D1*
M02*
