M48
METRIC,0000.00
T01C0.6
T02C0.61
T03C1.0
%
T01
X+001461Y+001715
X+001461Y+001842
T02
X+002837Y+002114
X+002435Y+002114
X+002206Y+001662
X+003007Y+001663
X+002915Y+001104
X+002911Y+000800
X+003237Y+001047
X+003434Y+001057
X+003636Y+000412
X+003839Y+000404
X+003837Y+001798
X+003636Y+002108
X+002218Y+000795
X+001545Y+000788
T03
X+002289Y+002459
X+002035Y+002459
X+001781Y+002459
X+001527Y+002459
X+001273Y+002459
X+001019Y+002459
X+000765Y+002459
X+001006Y+002177
X+001006Y+001923
X+001006Y+001669
X+001006Y+001415
X+001066Y+000144
X+001320Y+000144
X+001574Y+000144
X+001828Y+000144
X+002082Y+000144
X+002336Y+000144
X+002590Y+000144
X+002844Y+000144
X+003098Y+000144
X+003352Y+000144
X+003606Y+000144
X+003860Y+000144
X+002543Y+002459
T00
M30
