G04 DipTrace 3.3.1.3*
G04 TopDimension.gbr*
%MOMM*%
G04 #@! TF.FileFunction,Drawing,Top*
G04 #@! TF.Part,Single*
%ADD13C,0.035*%
%ADD52C,0.15686*%
%FSLAX35Y35*%
G04*
G71*
G90*
G75*
G01*
G04 TopDimension*
%LPD*%
X600000Y0D2*
D13*
X313948D1*
X600000Y2600000D2*
X313948D1*
X363948Y1300000D2*
Y100000D1*
G36*
Y0D2*
X343948Y100000D1*
X383948D1*
X363948Y0D1*
G37*
Y1300000D2*
D13*
Y2500000D1*
G36*
Y2600000D2*
X383948Y2500000D1*
X343948D1*
X363948Y2600000D1*
G37*
X600000Y0D2*
D13*
Y2845550D1*
X4000000Y0D2*
Y2845550D1*
X2300000Y2795550D2*
X700000D1*
G36*
X600000D2*
X700000Y2815550D1*
Y2775550D1*
X600000Y2795550D1*
G37*
X2300000D2*
D13*
X3900000D1*
G36*
X4000000D2*
X3900000Y2775550D1*
Y2815550D1*
X4000000Y2795550D1*
G37*
X255216Y1231511D2*
D52*
X250386D1*
X240616Y1236340D1*
X235786Y1241169D1*
X230957Y1250940D1*
Y1270369D1*
X235786Y1280028D1*
X240616Y1284857D1*
X250386Y1289798D1*
X260045D1*
X269816Y1284857D1*
X284303Y1275198D1*
X332932Y1226569D1*
Y1294628D1*
X245445Y1384288D2*
X235786Y1379459D1*
X230957Y1364859D1*
Y1355200D1*
X235786Y1340600D1*
X250386Y1330829D1*
X274645Y1326000D1*
X298903D1*
X318332Y1330829D1*
X328103Y1340600D1*
X332932Y1355200D1*
Y1360029D1*
X328103Y1374517D1*
X318332Y1384288D1*
X303732Y1389117D1*
X298903D1*
X284303Y1384288D1*
X274645Y1374517D1*
X269816Y1360029D1*
Y1355200D1*
X274645Y1340600D1*
X284303Y1330829D1*
X298903Y1326000D1*
X2231455Y2928541D2*
X2284801D1*
X2255713Y2889682D1*
X2270313D1*
X2279971Y2884853D1*
X2284801Y2880024D1*
X2289742Y2865424D1*
Y2855765D1*
X2284801Y2841165D1*
X2275142Y2831395D1*
X2260542Y2826565D1*
X2245942D1*
X2231455Y2831395D1*
X2226625Y2836336D1*
X2221684Y2845995D1*
X2369744Y2826565D2*
Y2928541D1*
X2321115Y2860595D1*
X2394002D1*
M02*
