G04 DipTrace 3.3.1.3*
G04 TopMask.gbr*
%MOMM*%
G04 #@! TF.FileFunction,Soldermask,Top*
G04 #@! TF.Part,Single*
%ADD34C,1.2*%
%ADD36R,1.2X1.2*%
%ADD38R,0.85X1.25*%
%ADD40C,1.9*%
%ADD44R,3.45X2.35*%
%ADD46R,1.15X2.35*%
%ADD48R,2.0X1.8*%
%FSLAX35Y35*%
G04*
G71*
G90*
G75*
G01*
G04 TopMask*
%LPD*%
D48*
X1264299Y1182163D3*
Y902163D3*
Y443467D3*
Y723467D3*
D46*
X1544590Y632310D3*
X1774590D3*
X2004590D3*
D44*
X1774590Y1212310D3*
D48*
X3527660Y1363740D3*
Y1643740D3*
X2475260Y1363740D3*
Y1643740D3*
X2762260Y1363740D3*
Y1643740D3*
X3631347Y542387D3*
Y822387D3*
X3203667Y1363740D3*
Y1643740D3*
D40*
X2289097Y2458967D3*
X1065603Y144460D3*
X1319603D3*
X1573603D3*
X1827603D3*
X2081603D3*
X2335603D3*
X2589603D3*
X2843603D3*
X3097603D3*
X3351603D3*
X3605603D3*
X3859603D3*
X2035097Y2458967D3*
X1781097D3*
X1527097D3*
X1273097D3*
X1019097D3*
X765097D3*
D38*
X2305503Y1998973D3*
X2115503D3*
X2210503Y1768973D3*
D48*
X2909917Y812453D3*
Y1092453D3*
D40*
X1005893Y1415100D3*
X1005870Y1669100D3*
Y1923100D3*
Y2177100D3*
D36*
X1460553Y1715337D3*
D34*
Y1842337D3*
D40*
X2543413Y2459000D3*
M02*
